<?xml version="1.0" encoding="UTF-8"?>
<svg height="600" width="800" xmlns="http://www.w3.org/2000/svg" xmlns:xlink="http://www.w3.org/1999/xlink">
    <g id="Notes" font-family="LucidaGrande, 'Lucida Grande', sans-serif" font-size="13">
        <rect fill="white" height="600.0" width="800.0" x="0.0" y="0.0" />
        <g font-size="13">
            <text x="18.0" y="176.0">Small</text>
            <text x="18.0" y="376.0">Medium</text>
            <text x="18.0" y="576.0">Large</text>
        </g>
        <g font-size="9">
            <text x="250.0" y="30.0">Ultralight</text>
            <text x="450.0" y="30.0">Regular</text>
            <text x="650.0" y="30.0">Black</text>
            <text id="template-version" fill="#505050" text-anchor="end" x="785.0" y="575.0">Template v.3.0</text>
            <a href="https://github.com/swhitty/SwiftDraw">
                <text fill="#505050" text-anchor="end" x="785.0" y="590.0">https://github.com/swhitty/SwiftDraw</text>
            </a>
        </g>
    </g>
    <g id="Guides" stroke="rgb(39, 170, 225)" stroke-width="0.5">
        <path id="Capline-S" d="M18,76 l800,0" />
        <path id="H-reference" d="M85,145.755 L87.685,145.755 L113.369,79.287 L114.052,79.287 L114.052,76 L112.148,76 L85,145.755 Z M95.693,121.536 L130.996,121.536 L130.263,119.313 L96.474,119.313 L95.693,121.536 Z M139.15,145.755 L141.787,145.755 L114.638,76 L113.466,76 L113.466,79.287 L139.15,145.755 Z" stroke="none" transform="translate(0,0)" />
        <path id="Baseline-S" d="M18,146 l800,0" />
        <path id="left-margin-Ultralight-S" d="M228.937,56 l0,110" />
        <path id="right-margin-Ultralight-S" d="M301.063,56 l0,110" />
        <path id="left-margin-Regular-S" d="M428.937,56 l0,110" />
        <path id="right-margin-Regular-S" d="M501.063,56 l0,110" />
        <path id="left-margin-Black-S" d="M628.937,56 l0,110" />
        <path id="right-margin-Black-S" d="M701.063,56 l0,110" />
        <path id="Capline-M" d="M18,276 l800,0" />
        <path id="Baseline-M" d="M18,346 l800,0" />
        <path id="Capline-L" d="M18,476 l800,0" />
        <path id="Baseline-L" d="M18,546 l800,0" />
    </g>
    <g id="Symbols">
        <g id="Ultralight-S" transform="translate(0,0)">
            <path d="M404.391 850.029C388.969 858.888 370.002 858.889 354.58 850.029L25.0933 660.745C9.57092 651.828 -0.000412348 635.292 -0.000509298 617.39L-0.000472671 239.284C-0.00039294 221.382 9.57076 204.846 25.0933 195.929L354.58 6.64525C370.002 -2.21429 388.969 -2.21539 404.391 6.64357L733.905 195.929C749.428 204.846 759 221.382 759 239.284L759 617.389C759 635.291 749.428 651.828 733.905 660.745L404.391 850.029ZM379.487 676.312C385.754 542.31 492.973 435.091 626.975 428.824C493.221 422.249 385.758 315.105 379.487 181.337C372.891 315.193 265.857 422.228 132.001 428.824C265.769 435.095 372.912 542.558 379.487 676.312Z" transform="translate(230.5862 80.7940) scale(0.079921)"/>
        </g>
        <g id="Regular-S" transform="translate(0,0)">
            <path d="M404.391 850.029C388.969 858.888 370.002 858.889 354.58 850.029L25.0933 660.745C9.57092 651.828 -0.000412348 635.292 -0.000509298 617.39L-0.000472671 239.284C-0.00039294 221.382 9.57076 204.846 25.0933 195.929L354.58 6.64525C370.002 -2.21429 388.969 -2.21539 404.391 6.64357L733.905 195.929C749.428 204.846 759 221.382 759 239.284L759 617.389C759 635.291 749.428 651.828 733.905 660.745L404.391 850.029ZM379.487 676.312C385.754 542.31 492.973 435.091 626.975 428.824C493.221 422.249 385.758 315.105 379.487 181.337C372.891 315.193 265.857 422.228 132.001 428.824C265.769 435.095 372.912 542.558 379.487 676.312Z" transform="translate(430.5862 80.7940) scale(0.079921)"/>
        </g>
        <g id="Black-S" transform="translate(0,0)">
            <path d="M404.391 850.029C388.969 858.888 370.002 858.889 354.58 850.029L25.0933 660.745C9.57092 651.828 -0.000412348 635.292 -0.000509298 617.39L-0.000472671 239.284C-0.00039294 221.382 9.57076 204.846 25.0933 195.929L354.58 6.64525C370.002 -2.21429 388.969 -2.21539 404.391 6.64357L733.905 195.929C749.428 204.846 759 221.382 759 239.284L759 617.389C759 635.291 749.428 651.828 733.905 660.745L404.391 850.029ZM379.487 676.312C385.754 542.31 492.973 435.091 626.975 428.824C493.221 422.249 385.758 315.105 379.487 181.337C372.891 315.193 265.857 422.228 132.001 428.824C265.769 435.095 372.912 542.558 379.487 676.312Z" transform="translate(630.5862 80.7940) scale(0.079921)"/>
        </g>
        <g id="Ultralight-M" transform="translate(0,0)">
            <path d="M404.391 850.029C388.969 858.888 370.002 858.889 354.58 850.029L25.0933 660.745C9.57092 651.828 -0.000412348 635.292 -0.000509298 617.39L-0.000472671 239.284C-0.00039294 221.382 9.57076 204.846 25.0933 195.929L354.58 6.64525C370.002 -2.21429 388.969 -2.21539 404.391 6.64357L733.905 195.929C749.428 204.846 759 221.382 759 239.284L759 617.389C759 635.291 749.428 651.828 733.905 660.745L404.391 850.029ZM379.487 676.312C385.754 542.31 492.973 435.091 626.975 428.824C493.221 422.249 385.758 315.105 379.487 181.337C372.891 315.193 265.857 422.228 132.001 428.824C265.769 435.095 372.912 542.558 379.487 676.312Z" transform="translate(230.5862 280.7940) scale(0.079921)"/>
        </g>
        <g id="Regular-M" transform="translate(0,0)">
            <path d="M404.391 850.029C388.969 858.888 370.002 858.889 354.58 850.029L25.0933 660.745C9.57092 651.828 -0.000412348 635.292 -0.000509298 617.39L-0.000472671 239.284C-0.00039294 221.382 9.57076 204.846 25.0933 195.929L354.58 6.64525C370.002 -2.21429 388.969 -2.21539 404.391 6.64357L733.905 195.929C749.428 204.846 759 221.382 759 239.284L759 617.389C759 635.291 749.428 651.828 733.905 660.745L404.391 850.029ZM379.487 676.312C385.754 542.31 492.973 435.091 626.975 428.824C493.221 422.249 385.758 315.105 379.487 181.337C372.891 315.193 265.857 422.228 132.001 428.824C265.769 435.095 372.912 542.558 379.487 676.312Z" transform="translate(430.5862 280.7940) scale(0.079921)"/>
        </g>
        <g id="Black-M" transform="translate(0,0)">
            <path d="M404.391 850.029C388.969 858.888 370.002 858.889 354.58 850.029L25.0933 660.745C9.57092 651.828 -0.000412348 635.292 -0.000509298 617.39L-0.000472671 239.284C-0.00039294 221.382 9.57076 204.846 25.0933 195.929L354.58 6.64525C370.002 -2.21429 388.969 -2.21539 404.391 6.64357L733.905 195.929C749.428 204.846 759 221.382 759 239.284L759 617.389C759 635.291 749.428 651.828 733.905 660.745L404.391 850.029ZM379.487 676.312C385.754 542.31 492.973 435.091 626.975 428.824C493.221 422.249 385.758 315.105 379.487 181.337C372.891 315.193 265.857 422.228 132.001 428.824C265.769 435.095 372.912 542.558 379.487 676.312Z" transform="translate(630.5862 280.7940) scale(0.079921)"/>
        </g>
        <g id="Ultralight-L" transform="translate(0,0)">
            <path d="M404.391 850.029C388.969 858.888 370.002 858.889 354.58 850.029L25.0933 660.745C9.57092 651.828 -0.000412348 635.292 -0.000509298 617.39L-0.000472671 239.284C-0.00039294 221.382 9.57076 204.846 25.0933 195.929L354.58 6.64525C370.002 -2.21429 388.969 -2.21539 404.391 6.64357L733.905 195.929C749.428 204.846 759 221.382 759 239.284L759 617.389C759 635.291 749.428 651.828 733.905 660.745L404.391 850.029ZM379.487 676.312C385.754 542.31 492.973 435.091 626.975 428.824C493.221 422.249 385.758 315.105 379.487 181.337C372.891 315.193 265.857 422.228 132.001 428.824C265.769 435.095 372.912 542.558 379.487 676.312Z" transform="translate(230.5862 480.7940) scale(0.079921)"/>
        </g>
        <g id="Regular-L" transform="translate(0,0)">
            <path d="M404.391 850.029C388.969 858.888 370.002 858.889 354.58 850.029L25.0933 660.745C9.57092 651.828 -0.000412348 635.292 -0.000509298 617.39L-0.000472671 239.284C-0.00039294 221.382 9.57076 204.846 25.0933 195.929L354.58 6.64525C370.002 -2.21429 388.969 -2.21539 404.391 6.64357L733.905 195.929C749.428 204.846 759 221.382 759 239.284L759 617.389C759 635.291 749.428 651.828 733.905 660.745L404.391 850.029ZM379.487 676.312C385.754 542.31 492.973 435.091 626.975 428.824C493.221 422.249 385.758 315.105 379.487 181.337C372.891 315.193 265.857 422.228 132.001 428.824C265.769 435.095 372.912 542.558 379.487 676.312Z" transform="translate(430.5862 480.7940) scale(0.079921)"/>
        </g>
        <g id="Black-L" transform="translate(0,0)">
            <path d="M404.391 850.029C388.969 858.888 370.002 858.889 354.58 850.029L25.0933 660.745C9.57092 651.828 -0.000412348 635.292 -0.000509298 617.39L-0.000472671 239.284C-0.00039294 221.382 9.57076 204.846 25.0933 195.929L354.58 6.64525C370.002 -2.21429 388.969 -2.21539 404.391 6.64357L733.905 195.929C749.428 204.846 759 221.382 759 239.284L759 617.389C759 635.291 749.428 651.828 733.905 660.745L404.391 850.029ZM379.487 676.312C385.754 542.31 492.973 435.091 626.975 428.824C493.221 422.249 385.758 315.105 379.487 181.337C372.891 315.193 265.857 422.228 132.001 428.824C265.769 435.095 372.912 542.558 379.487 676.312Z" transform="translate(630.5862 480.7940) scale(0.079921)"/>
        </g>
    </g>
</svg>
